<svg xmlns="http://www.w3.org/2000/svg" width="24" height="24" viewBox="0 0 24 24">
    <g fill="none" fill-rule="evenodd">
        <path fill="#3A3A3A" d="M12.5 13.283l5.348 5.348a1.259 1.259 0 0 0 1.78 0 1.257 1.257 0 0 0 0-1.784L14.283 11.5l5.347-5.348a1.254 1.254 0 0 0 0-1.78 1.254 1.254 0 0 0-1.781 0L12.5 9.717 7.153 4.371a1.257 1.257 0 0 0-1.784 0 1.259 1.259 0 0 0 0 1.781l5.348 5.348-5.348 5.347a1.262 1.262 0 0 0 1.784 1.784l5.347-5.348z"/>
        <path d="M0 0h24v24H0z"/>
    </g>
</svg>
