<?xml version="1.0" encoding="utf-8"?>
<svg version="1.1" id="Layer_1" xmlns="http://www.w3.org/2000/svg" xmlns:xlink="http://www.w3.org/1999/xlink" x="0px" y="0px"
	 width="148.09" height="134.19" viewBox="-232 324.3 148.09 134.9" style="enable-background:new -232 324.3 148.09 134.9;" xml:space="preserve">
    <style type="text/css">
        .st0{fill:#FFFFFF;}
        .st1{fill:#99CC33;}
        .st2{fill:#669933;}
    </style>
    <title>HelloFresh_Logo</title>
    <g id="Outline">
        <path class="st0" d="M-87.6,348.3c-2.3-3.8-8.2-5.7-13.5-7.6c-10-3.7-10.9-5.1-15.8-7.3c-5.6-3-11.2-5.2-16.6-6.5
            c-11.7-2.9-20.8-3-27.7-2c-17.6,2.5-35.6,12.3-47.7,25.7c-2.7,3.1-5.2,6-7.4,9.4c-6.1,9.3-10.5,20.9-11.6,32.2
            c-0.6,6.8,0.7,12.9-1.8,20.2c-2.3,6.5-3.5,13-0.9,19.6c1.2,3.2,3.1,5.8,7,8.3c5.3,3.3,10.7,3.3,15.9,5.7c1.4,0.6,8.3,5.1,12,6.6
            c4.3,1.8,7.4,2.7,9.9,3.3c5.9,1.5,12.3,2.2,19.1,2.2c9.9-0.1,20.8-1.9,32.5-7.4c8.8-4.1,18.3-10.4,25.8-18.1
            c3.8-3.8,6.4-7.6,8.7-11c2.9-4.3,5.3-9,7-13.2c2.3-5.5,3.8-11.1,4.8-16.4c1.6-8.9,1.6-17.2,1.6-23.1c0-5,1.2-9.2,0.9-13.5
            C-85.4,353.1-86,351-87.6,348.3z"/>
    </g>
    <g id="Logo">
        <g>
            <path class="st1" d="M-89,350.1c-0.8-1.5-1.8-2.5-3-3.4c-0.2-0.1-0.3-0.2-0.6-0.3c-0.1-0.1-0.2-0.1-0.3-0.2c-2.3-1.3-5-2-7.7-3
                c-0.6-0.2-1,0.2-0.6,0.6c6.4,7.4,7,13.2-0.2,4.5c-19.2-23.2-52.5-22.1-54.7-21.9c-1.9,0.1-3.8,0.3-5.7,0.6
                c-17.1,2.7-33.6,11.9-45.4,24.8c-2.7,3-5.2,6.1-7.4,9.5c-5.9,9-9.8,19.4-11,30.1c-0.8,6.7,1.1,14.8-1.6,21.1
                c-3.9,9.3-2.9,21.4,7.6,25.5c1.3,0.5,3.1,1.1,4.4,1.5c3.8,1.1,7.7,1.2,11.3,3.1c0.7,0.3,1.4,0.7,2,1.1c0.7,0.4,1.3,0.7,2,1.1
                c2.7,1.6,5.4,3.2,8.4,4.4c0.1,0.1,0.2,0.1,0.4,0.2c0.2,0.1,0.5,0.2,0.7,0.3c7.9,3.2,16.3,4.6,24.6,4.8c1.3,0,2.6,0,3.9-0.1
                c0.6,0,1.3-0.1,1.9-0.1c1.3-0.1,2.6-0.2,3.8-0.3c1.3-0.2,2.6-0.3,3.8-0.6c0.6-0.1,1.3-0.2,1.9-0.3c7-1.4,13.7-3.7,20.1-7
                c0.8-0.4,1.5-0.8,2.3-1.2c0.7-0.4,1.5-0.9,2.2-1.3c1.5-0.9,2.9-1.8,4.3-2.7c2.2-1.5,4.2-3,6.1-4.6c1-0.8,1.9-1.7,2.8-2.5
                c1.8-1.7,3.6-3.5,5.2-5.4c2.4-2.8,4.6-5.8,6.6-8.9c5.2-8.2,8.7-17.5,10.7-27.3c0.1-0.5,0.2-0.9,0.2-1.3c0.1-0.4,0.2-0.9,0.2-1.3
                c1.1-6.7,1.5-13.6,1.1-20.7C-88.6,361.9-85.4,356.8-89,350.1z M-180.8,343.2c-13.6,7.8-8.5,0.3,1.1-4.8c15.2-8,31.7-5.4,31.7-5.4
                S-164,333.6-180.8,343.2"/>
            <g>
                <g>
                    <path class="st2" d="M-201.9,433.8c-1.1-1.2-2.7-2.8-3.7,0.9c-1.4,5-6.4,4.8-8.8,4.4c-0.3-0.1-0.6-0.2-0.8-0.2
                        c-1.3-0.3-2.5-0.7-3.8-1.3c-10.5-4-12.1-15.7-8.2-25c0,0-8.8,19.2,5.9,26.8c4.8,2.5,10.3,2.5,15.1,5.1c1.4,0.7,2.7,1.5,4,2.3
                        c2.7,1.5,5.4,3.2,8.3,4.4c0.3,0.2,0.7,0.3,1.1,0.5c19.4,7.7,41.5,5.7,59.9-3.7c3.2-1.6,6-3.5,8.9-5.2c5.7-3.4,11.1-8.4,11.1-8.4
                        C-125.1,442.3-170.3,468.9-201.9,433.8"/>
                    <path class="st2" d="M-221.4,424c2.5-1.8,4.2,0.7,5.4,2.6c1.3,1.9,0.9,3.4-0.5,4.3s-3.7-0.1-5-2.1c-1.3-1.9-1-3.3-0.6-4.1
                        L-221.4,424z"/>
                    <g>
                        <g>
                            <path class="st2" d="M-130,398.9c-0.6-3.8-2.9-5.3-6.5-4.6c-0.3,0.1-0.7,0.1-1,0.2c0.1-0.3,0.1-0.5-0.1-0.5
                                c-0.8,0.1-1.8,0.9-2.1,1.2c-0.2,0.2-0.6,0.5-1,1c-1.8,1.7-2.6,3.8-2.6,6.1c0,4,2.5,6.1,4.9,8c2.4,1.8,4.4,3.3,4.4,5.8
                                c0,2.1-1.3,2.9-2.5,3.2c-1.8,0.3-2.6-0.8-2.6-3v-1.6c0-0.6-0.4-0.9-1-0.8l-0.6,0.1l-1-0.7l-1.5,1.4c-0.2,0.2-0.3,0.5-0.3,0.7
                                v1.9c0,4.2,2.6,6.7,6.9,6c1.4-0.2,2.6-0.8,3.7-1.5c0.1-0.1,0.1-0.1,0.2-0.1c1-0.7,1.8-1.6,2.7-2.8c0.1-0.2-0.2-0.5-0.2-0.6
                                c0.2-0.6,0.6-1.4,0.7-2.7l-0.2,0.1c0-0.2,0-0.5,0-0.7c0-3.8-2.2-5.9-5.1-8.2c-2.5-2-4.1-3.3-4.1-5.5c0-1.4,0.7-2.7,2.3-3
                                c1.5-0.3,2.3,0.6,2.3,3.4v0.8c0,0.4,0.3,0.7,0.7,0.6l2.7-0.5c0.1,0,0.3-0.1,0.4-0.2c0.6-0.3,1.5-1.2,1.7-1.5
                                c0.3-0.5-0.4-0.7-0.4-1C-129,400-129.5,399.1-130,398.9z"/>
                            <path class="st2" d="M-177.3,402.1c-0.1,0-0.3,0.1-0.6,0.2c-0.2-0.2-0.4-0.2-0.7-0.2l-8.9,1.5l-0.6-0.8l-1.1,1
                                c-0.2,0.2-0.4,0.4-0.5,0.6c-0.1,0.2-0.2,0.4-0.2,0.6v26.2c0,0.6,0.4,0.9,1,0.8l2.6-0.5c0.2,0,0.3-0.1,0.5-0.1
                                c0.1,0,0.1-0.1,0.2-0.1c0.4-0.2,1.4-1.4,1.4-1.4s-0.6-1.3-0.6-1.6c0-0.1-0.2-0.3-0.4-0.5v-8.5c0-0.2,0.2-0.4,0.4-0.5l4.3-0.7
                                c0.2,0,0.3-0.1,0.5-0.2c0.4-0.2,1.5-1.4,1.5-1.4s0.2-1,0.2-1.3c0,0-0.6-1.4-0.8-1.4c-0.1,0-0.4,0.2-0.7,0.4
                                c-0.2-0.1-0.4-0.2-0.7-0.1l-4.3,0.7c-0.2,0.1-0.4-0.1-0.4-0.3v-6.9c0-0.2,0.2-0.4,0.4-0.5l6.2-1.1c0.1,0,0.3-0.1,0.4-0.2
                                c0.2-0.2,1.6-1.5,1.6-1.5s0.6-0.6,0.1-1.3C-176.5,403.3-177.1,402.1-177.3,402.1z"/>
                            <path class="st2" d="M-161.3,423.7c-0.2,0-0.2-0.1-0.4,0.1l-2.5-8c-0.1-0.2-0.6-1.3-0.4-1.4c2.2-1.5,3.7-2.5,3.7-6.9
                                c0-4.8-1.1-8.2-6.6-7.3l-4.6,0.8c0.2-0.4,0.3-0.7,0.3-0.7c-0.9,0.1-0.6-0.6-1.3,0.1c-0.3,0.4-0.9,0.8-1.2,1.1
                                c-0.3,0.3-0.5,0.6-0.5,0.9v26.3c0,0.6,0.4,0.9,1,0.8l2.7-0.5c0.1,0,0.3-0.1,0.4-0.1c0.3-0.1,1.4-1.3,1.4-1.3s0.5-0.5,0.6-0.9
                                c0,0-0.7-0.6-1.3-1v-8.2c0-0.2,0.2-0.4,0.4-0.5l0.9-0.2c0.2-0.1,0.4,0.1,0.5,0.3l2.8,9.9c0.2,0.5,0.7,0.8,1.3,0.7l2.5-0.5
                                c0.3-0.1,0.4-0.1,0.5-0.2c0.5-0.3,1.3-1.1,1.3-1.1s0.3-0.4,0.3-0.5C-159.7,425.5-161.1,423.7-161.3,423.7z M-168.3,413.1
                                l-1.4,0.2c-0.2,0.1-0.4-0.1-0.4-0.3v-8c0-0.2,0.2-0.4,0.4-0.5l1.4-0.2c2.1-0.3,2.7,0.5,2.7,4
                                C-165.6,411.6-166.2,412.7-168.3,413.1z"/>
                            <path class="st2" d="M-145.6,421c-0.1,0-0.2,0-0.3,0c0-0.3-0.1-0.6-0.3-0.5l-6.4,1.1c-0.2,0.1-0.4-0.1-0.4-0.3v-7.7
                                c0-0.2,0.2-0.4,0.4-0.5l4.1-0.7c0.2-0.1,0.4-0.1,0.6-0.3c0.5-0.3,1.3-1.2,1.4-1.4c0.1-0.1,0.2-0.5,0.2-0.6
                                c0.1-0.5-0.7-0.5-1.2-0.5v-0.3c0-0.4-0.2-0.7-0.6-0.8l0,0c-0.1,0-0.2,0-0.3,0l-4.1,0.7c-0.2,0.1-0.4-0.1-0.4-0.3v-6.8
                                c0-0.2,0.2-0.4,0.4-0.5l6.1-1.1c0.2-0.1,0.3-0.1,0.5-0.2c0.6-0.4,1.4-1.2,1.5-1.5c0.2-0.3-0.3-0.6-0.3-1c0,0-0.3-0.1-0.8-0.2
                                v-0.4c0-0.6-0.5-0.9-1-0.8l-9.1,1.6l-0.2-0.9l-1.5,1.4l0,0c-0.2,0.2-0.3,0.5-0.3,0.8v26.2c0,0.6,0.5,0.9,1,0.8l10-1.8
                                c0.3-0.1,0.5-0.1,0.6-0.2c0.4-0.2,1.7-1.4,1.7-1.4s0.3-0.4,0.3-0.8C-144.1,422.4-145.4,421-145.6,421z"/>
                            <path class="st2" d="M-111.6,415.6c0,0-0.5-0.5-0.8-0.7v-23.4c0-0.6-0.4-0.9-1-0.8l-1.6,0.3l-0.3-0.8l-1.1,1.1
                                c-0.3,0.3-0.6,0.6-0.6,1v10.5c0,0.2-0.2,0.4-0.4,0.5l-4.2,0.7c-0.2,0.1-0.4-0.1-0.4-0.3v-10.5c0-0.6-0.4-0.9-1-0.8l-1.6,0.3
                                l-0.2-0.9c0,0-1.2,1.1-1.3,1.2c-0.3,0.2-0.5,0.7-0.5,1v26.2c0,0.6,0.5,0.9,1,0.8l2.4-0.4c0.4-0.1,0.7-0.3,0.9-0.5
                                c0.3-0.2,0.9-0.7,1.1-1c0.6-0.5,0.3-0.6,0.3-0.6c0.1-0.6-0.1-1-0.3-1.3c0,0-0.1-0.1-0.1-0.1c-0.2-0.5-0.3-0.9-0.4-0.9
                                c-0.1,0-0.2,0.1-0.3,0.1v-7.7c0-0.2,0.2-0.4,0.4-0.5l4.2-0.7c0.2-0.1,0.4,0.1,0.4,0.3v10.8c0,0.6,0.4,0.9,1,0.8l2.7-0.5
                                c0.6-0.1,2.1-1.8,2.1-1.8S-111.7,415.9-111.6,415.6z"/>
                        </g>
                        <path class="st2" d="M-116.1,382.7c3.8-7.2,4.3-21.1-1.6-23.5c-1.1-0.5-2.2-0.6-3.2-0.5l-0.2-0.6c-0.3,0.1-1.4,0.6-2.3,1.3
                            c-1,0.8-2.1,1.9-2.3,2.4c-1.9,2.3-3,5.8-3.7,10c-0.2,1.6-0.9,3.7-1.5,5.4c-1.8,5.3-6.4,15.1-7.8,2.9
                            c3.7-5.2,10.8-26.9,3.8-29.6l0.1-0.9l-0.6-0.3c0,0-1-0.1-1.8,0.3c-0.9,0.5-2.1,1.9-2.6,2.7c-0.1,0.1-0.1,0.1-0.1,0.2
                            c-1.9,2.9-3.1,8-3.5,13.1c-0.5,5.8-0.6,10.8,0.5,14.8c0.5,1.9,0.3,2.6,0,3.1c-2.1,3.2-9.5,10.6-10.5-2.7
                            c3.4-4.7,10.4-27.9,3.4-30.2l0.1-0.2l-2.4-0.2c0,0-0.7,0.7-1.3,1.3c-4.9,4.3-6.2,21.1-4.5,29.9c0,0.1,0.3,1.4,0.3,1.7l-0.2-0.2
                            c-0.5,0.6-6.6,9.9-12.2,8.4c-1.4-0.3-2.5-1.4-3-3.6c-0.3-1.1-0.4-2.9-0.5-4.1c0-0.6,0-1.3,0-1.9v-0.1l0,0
                            c0.2,0.1,0.4,0.1,0.6,0.1c0.4,0.1,0.9,0.1,1.3,0.1c0.9,0.1,1.9,0,2.9-0.3c1-0.3,2.3-0.9,3.2-1.7c0.1-0.1,0.2-0.2,0.3-0.3
                            c0.2-0.2,1.1-1,1.5-1.5c0.4-0.5,0.8-1.5,0.8-1.5l-0.4,0.1c0.1-0.2,0.2-0.4,0.2-0.6c0.1-0.2,0.1-0.5,0.2-0.7
                            c0.1-0.1,0.1-0.2,0.1-0.3v-0.1v-0.1v-0.1v-0.2c0.2-1.7,0.1-3.4-0.5-5.1c-0.5-1.2-2-3-4.4-2.9l1.1-1c-0.9-0.2-3.6,1.2-3.6,1.2
                            s-2.6,2.1-3.9,3.8c-2.2,2.7-3.4,5.7-4,8.7c-1.2-0.1-2.4-0.2-3.7-0.3l0,0l-0.5-0.1l-0.1-0.1c0.1-6,0.3-13.9,0.5-20.4
                            c0.1-1.8-0.8-2.6-1.8-2.9l0.2-0.3l1-0.5c-0.9,0.2-2.5-0.5-3-0.2c-0.5,0.2-1.3,1-1.4,1.3c-0.1,0.2-0.2,0.3-0.1,0.4
                            c0.3,2.9,0.5,12.7,0.3,22.4c-2.3-0.1-4.7,0.1-6.9,0.3c-0.6,0.1-1.3,0.2-1.8,0.3c0.2-5.7,0.5-12.3,0.5-12.3
                            c0.1-2.3-1.2-3-2.6-3.2l1-0.5c-0.5-0.1-2-1-3,0c-0.1,0.1-0.5,0.5-0.8,0.8c-0.1,0.1-0.2,0.2-0.2,0.3c0.2,2.1,0.3,9.6,0.2,16
                            c-2.1,0.8-4,1.7-5.1,2.3c-0.1,0.1-0.2,0.1-0.4,0.2h-0.5c0,0-0.8,0.6-1.4,1.2c-1,0.8-1,2.1-0.7,3c0.2,0.7,0.7,1,0.7,1
                            c0.2,0.1,0.3,0.1,0.5,0c0.2-0.1,1.3-0.8,1.8-1.1c0.2-0.2,0.5-0.3,0.7-0.5c0.3-0.2,0.6-0.3,0.9-0.5c1.1-0.6,1.9-1.2,3.3-1.8
                            c0,1-0.1,1.9-0.1,2.9c-0.2,4.4-0.5,16.8-0.5,16.8c-0.3,6.5,2.8,5.4,5.3,5c0.1,0,0.2-0.1,0.2-0.1c0.3-0.1,1.1-0.9,1.4-1.3
                            c0.2-0.2-0.3-0.9-0.5-1.2l-0.8-0.5l-0.3,0.3c-0.3-5-0.3-13.1-0.1-19.5c0-1.3,0-2.7,0.1-4.2c0.7-0.2,1.4-0.4,2.1-0.6
                            c2.1-0.5,4.3-0.9,6.6-1.1c-0.1,3.4-0.2,8.5-0.3,11.9c-0.3,6.1,2.6,4.6,5,4.2c0.1,0,0.2-0.1,0.3-0.1c0.3-0.3,0.7-0.6,1.3-1.3
                            c0.2-0.2-0.2-0.7-0.3-1.1l-1.3-0.9c-0.2-3.6-0.2-8.2-0.2-12.8l1.4,0.1c0.8,0.1,1.7,0.1,2.6,0.1c0,0.4-0.1,0.7-0.1,1.1
                            c0,0.7,0,1.5,0.1,2.2c0.1,1.4,0.4,2.9,0.8,4.2c0.5,1.3,1.1,2.6,2,3.7c0.5,0.5,1,1,1.7,1.4c8.4,4.2,15.1-7.4,16.3-9.6l0.1,0.2
                            c3.7,15.2,14.1,2.1,15.2-0.6c2.5,6.4,5.3,7.1,7.9,4.8c1-0.7,2.3-2.1,2.3-2.1c0,0,0.3-0.4,0-0.6c0,0-0.1,0-0.2,0
                            c1.1-1.8,2.2-4.2,3-6.7c0.7,4.7,1.9,7.8,5.8,8.2c1,0.2,2.2,0,3.4-0.5c0.3-0.1,0.7-0.3,1-0.6c0.1-0.1,0.1-0.1,0.2-0.2l0,0
                            c0.2-0.2,0.5-0.4,0.7-0.6c0.6-0.6,1.4-1.4,1.4-1.4s0.5-1.2,0.5-1.3C-116,382.7-116.1,382.7-116.1,382.7z M-173.4,379.4
                            c0.2-1.3,0.5-2.6,0.9-3.9c0.4-1.3,0.9-2.7,1.5-3.9c0.3-0.6,0.7-1.2,1.2-1.7c0.5-0.5,0.9-0.9,1.4-1c0.2-0.1,0.4-0.1,0.6-0.1
                            c0.1,0,0.1,0,0.2,0h0.1l0,0c0.1,0,0.1,0.1,0.1,0.1s0.1,0,0.1,0.1c0.1,0,0.1,0.1,0.1,0.1c0.3,0.2,0.6,0.7,0.7,1.3
                            c0.1,0.6,0.2,1.2,0.1,1.8c-0.1,0.6-0.2,1.3-0.3,2c-0.3,1.3-0.9,2.3-1.6,3.3c-0.3,0.5-0.7,0.9-1.3,1.3c-0.5,0.3-1.1,0.6-1.8,0.8
                            c-0.3,0.1-0.7,0.1-1,0.1c-0.1,0-0.5-0.1-0.9-0.1V379.4z M-150.2,354.4c2.4,0.6-1,17.4-4,23.1
                            C-155.3,367.1-152.9,353.7-150.2,354.4z M-135.3,354.1c2.4,0.6-0.9,16.2-4,22.3C-140.3,365.7-138.1,353.4-135.3,354.1z
                             M-119.4,382.5c-0.5,0.9-0.9,1.4-1.3,1.8c-0.5,0.4-1.7,0.9-2.4,0.2c-3.1-3-3-15.5-0.1-20.7c1-1.9,2.5-2.5,3.5-2.6
                            c1.1,0,1.8,1.2,2,1.6C-115.4,367.1-116.9,377.8-119.4,382.5z"/>
                    </g>
                    <path class="st0" d="M-116.3,357.7c-2.3-1-4.2-0.5-6.1,0.8c-3.3,2.2-4.9,6.4-5.6,11.8c-0.2,1.7-0.9,3.7-1.5,5.4
                        c-1.8,5.3-6.4,15.1-7.8,2.9c3.9-5.4,11.3-28.4,3-29.8c-4.8-0.9-7.3,7.4-8,15.5c-0.5,6-0.3,11,0.6,15c-0.7,1-9.2,15.4-10.4,0.1
                        c3.4-4.8,10.5-28.3,3.2-30.3c-7.6-2-10,20.2-7.8,30.7c-1,1.6-6.8,11.1-12.1,9.7c-1.4-0.3-2.5-1.4-3-3.6
                        c-0.3-1.1-0.4-2.9-0.5-4.1c0-0.6,0-1.3,0-1.9v-0.1l0,0c0.2,0.1,0.4,0.1,0.6,0.1c0.4,0.1,0.9,0.1,1.3,0.1c0.9,0.1,1.9,0,2.9-0.3
                        c1-0.3,2.3-0.9,3.2-1.7c0.8-0.7,1.5-1.6,1.9-2.5c0.2-0.5,0.4-0.9,0.5-1.4c0.1-0.2,0.1-0.5,0.2-0.7c0.1-0.1,0.1-0.2,0.1-0.3v-0.1
                        V373V373v-0.2c0.2-1.7,0.1-3.4-0.5-5.1c-0.6-1.4-2.5-3.5-5.4-2.7c-2.1,0.5-4.8,3.1-5.4,3.8c-2.2,2.7-3.4,5.7-4,8.7
                        c-1.3-0.1-2.7-0.2-4.1-0.3V377c0.1-6,0.3-13.8,0.5-20.3c0.2-4.1-4.1-3-5.2-2.6c-0.1,0.1-0.2,0.2-0.2,0.2
                        c0.3,2.9,0.5,12.8,0.3,22.5c-2.3-0.1-4.7,0.1-6.9,0.4c-0.6,0.1-1.3,0.2-1.8,0.3c0.2-5.7,0.5-12.3,0.5-12.3
                        c0.2-4.2-4.2-3.1-5.3-2.8c-0.2,0.1-0.2,0.2-0.2,0.3c0.2,2.1,0.3,9.7,0.2,16.1c-2.1,0.8-4,1.7-5.1,2.3c-0.5,0.3-1.3,0.7-1.9,1.2
                        c-1.3,0.8-1.3,2.2-1,3.3c0.2,0.7,0.7,1,0.7,1c0.2,0.1,0.3,0.1,0.5,0c0.2-0.1,1.3-0.8,1.8-1.1c0.2-0.2,0.5-0.3,0.7-0.5
                        c0.3-0.2,0.6-0.3,0.9-0.5c1.1-0.6,1.9-1.2,3.3-1.8c0,1-0.1,1.9-0.1,2.9c-0.2,4.4-0.5,16.8-0.5,16.8c-0.3,6.5,2.8,5.4,5.3,5
                        c0.1,0,0.2-0.1,0.2-0.2c-0.6-4.3-0.5-14.3-0.3-22c0-1.3,0-2.7,0.1-4.2c0.7-0.2,1.4-0.4,2.1-0.6c2.1-0.5,4.3-0.9,6.6-1.1
                        c-0.1,3.4-0.2,8.5-0.3,11.9c-0.3,6.1,2.6,4.6,5,4.2c0.2,0,0.3-0.2,0.2-0.3c-0.5-3.7-0.5-9.9-0.5-16c0.2,0,0.4,0,0.6,0
                        c0.9,0.1,2.1,0.1,3.3,0.2c0,0.4-0.1,0.7-0.1,1.1c0,0.7,0,1.5,0.1,2.2c0.1,1.4,0.4,2.9,0.8,4.2c0.5,1.3,1.1,2.6,2,3.7
                        c0.5,0.5,1,1,1.7,1.4c8.5,4.2,15.2-7.7,16.3-9.7l0.1,0.3c3.7,15.2,14.1,2.1,15.2-0.6c4.4,11.3,10,5,13.1-4.3
                        c0.7,4.7,1.8,7.7,5.8,8c1,0.2,2.2,0,3.4-0.5C-111.7,382.6-108.8,360.8-116.3,357.7z M-172.1,378c0.2-1.3,0.5-2.6,0.9-3.9
                        c0.4-1.3,0.9-2.7,1.5-3.9c0.3-0.6,0.7-1.2,1.2-1.7c0.5-0.5,0.9-0.9,1.4-1c0.2-0.1,0.4-0.1,0.6-0.1c0.1,0,0.1,0,0.2,0h0.1l0,0
                        c0.1,0,0.1,0.1,0.1,0.1s0.1,0,0.1,0.1c0.1,0,0.1,0.1,0.1,0.1c0.3,0.2,0.6,0.7,0.7,1.3c0.1,0.6,0.2,1.2,0.1,1.8
                        c-0.1,0.6-0.2,1.3-0.3,2c-0.3,1.3-0.9,2.3-1.6,3.3c-0.3,0.5-0.7,0.9-1.3,1.3c-0.5,0.3-1.1,0.6-1.8,0.8c-0.3,0.1-0.7,0.1-1,0.1
                        c-0.1,0-0.5-0.1-0.9-0.1V378z M-148.8,353c2.4,0.6-1,17.4-4,23.1C-153.9,365.7-151.5,352.3-148.8,353z M-137.9,375
                        c-0.9-10.7,1.3-23,4-22.3C-131.5,353.4-134.8,368.9-137.9,375z M-118,381.2c-0.5,0.9-0.9,1.4-1.3,1.8c-0.5,0.4-1.7,0.9-2.4,0.2
                        c-3.1-3-3-15.5-0.1-20.7c1-1.9,2.5-2.5,3.5-2.6c1.1,0,1.8,1.2,2,1.6C-114,365.7-115.5,376.5-118,381.2z"/>
                    <g>
                        <path class="st0" d="M-177.3,400.9l-10.3,1.8c-0.6,0.1-1,0.6-1,1.1v26.2c0,0.6,0.4,0.9,1,0.8l2.7-0.5c0.6-0.1,1-0.6,1-1.1
                            v-11.1c0-0.2,0.2-0.4,0.4-0.5l4.3-0.7c0.6-0.1,1-0.6,1-1.1v-2.1c0-0.6-0.4-0.9-1-0.8l-4.3,0.7c-0.2,0.1-0.4-0.1-0.4-0.3v-6.9
                            c0-0.2,0.2-0.4,0.4-0.5l6.2-1.1c0.6-0.1,1-0.6,1-1.1v-2.1C-176.2,401.1-176.7,400.8-177.3,400.9z"/>
                        <path class="st0" d="M-162.9,414.4c-0.1-0.2,0.1-0.5,0.2-0.6c2.2-1.5,3-3.3,3-7.7c0-4.8-1.1-8.2-6.6-7.3l-6.3,1.1
                            c-0.6,0.1-1,0.6-1,1.1v26.2c0,0.6,0.5,0.9,1,0.8l2.7-0.5c0.6-0.1,1-0.6,1-1.1v-10.4c0-0.2,0.2-0.4,0.4-0.5l0.9-0.2
                            c0.2-0.1,0.4,0.1,0.5,0.3l2.8,9.9c0.2,0.5,0.7,0.8,1.3,0.7l2.6-0.5c0.5-0.1,0.8-0.6,0.7-1.1L-162.9,414.4z M-167,411.7
                            l-1.4,0.2c-0.2,0.1-0.4-0.1-0.4-0.3v-8c0-0.2,0.2-0.4,0.4-0.5l1.4-0.2c2.1-0.3,2.7,0.5,2.7,4S-164.8,411.4-167,411.7z"/>
                        <path class="st0" d="M-144.8,419.1l-6.4,1.1c-0.2,0.1-0.4-0.1-0.4-0.3v-7.7c0-0.2,0.2-0.4,0.4-0.5l4.1-0.7c0.6-0.1,1-0.6,1-1.1
                            v-2c0-0.6-0.4-0.9-1-0.8l-4.1,0.7c-0.2,0.1-0.4-0.1-0.4-0.3v-6.8c0-0.2,0.2-0.4,0.4-0.5l6.1-1.1c0.6-0.1,1-0.6,1-1.1v-2.1
                            c0-0.6-0.5-0.9-1-0.8l-10.1,1.8c-0.6,0.1-1,0.6-1,1.1v26.2c0,0.6,0.5,0.9,1,0.8l10.4-1.8c0.6-0.1,1-0.6,1-1.1v-2.2
                            C-143.9,419.4-144.3,419-144.8,419.1z"/>
                        <path class="st0" d="M-133.2,405.4c-2.5-2-4.1-3.3-4.1-5.5c0-1.4,0.7-2.7,2.3-3c1.5-0.3,2.3,0.6,2.3,3.4v0.8
                            c0,0.4,0.3,0.7,0.7,0.6l2.7-0.5c0.5-0.1,0.9-0.5,0.9-1v-0.9c0-5.3-2.5-7.2-6.6-6.5c-4.8,0.9-6.8,4.4-6.8,8c0,4,2.5,6.1,4.9,8
                            c2.4,1.8,4.4,3.3,4.4,5.8c0,2.1-1.3,2.9-2.5,3.2c-1.8,0.3-2.6-0.8-2.6-3v-1.6c0-0.6-0.4-0.9-1-0.8l-2.4,0.4
                            c-0.6,0.1-1,0.6-1,1.1v1.9c0,4.2,2.6,6.7,6.9,6c4.1-0.7,6.9-4,6.9-8.4C-128.1,409.7-130.3,407.7-133.2,405.4z"/>
                        <path class="st0" d="M-112,389.3l-2.7,0.5c-0.6,0.1-1,0.6-1,1.1v10.5c0,0.2-0.2,0.4-0.4,0.5l-4.2,0.7c-0.2,0.1-0.4-0.1-0.4-0.3
                            v-10.5c0-0.6-0.4-0.9-1-0.8l-2.7,0.5c-0.6,0.1-1,0.6-1,1.1v26.2c0,0.6,0.5,0.9,1,0.8l2.7-0.5c0.6-0.1,1-0.6,1-1.1v-10.8
                            c0-0.2,0.2-0.4,0.4-0.5l4.2-0.7c0.2-0.1,0.4,0.1,0.4,0.3v10.8c0,0.6,0.4,0.9,1,0.8l2.7-0.5c0.6-0.1,1-0.6,1-1.1v-26.2
                            C-111,389.5-111.4,389.2-112,389.3z"/>
                    </g>
                </g>
            </g>
        </g>
    </g>
</svg>
