<svg xmlns="http://www.w3.org/2000/svg" width="17" height="20" viewBox="0 0 17 20">
    <g fill="none" fill-rule="evenodd">
        <path d="M-1055-25H85v70h-1140z"/>
        <path d="M-1 0h20v20H-1z"/>
        <path fill="#ffffff" fill-rule="nonzero" d="M12.333.833h-10C1.417.833.667 1.583.667 2.5v11.667h1.666V2.5h10V.833zm2.5 3.334H5.667C4.75 4.167 4 4.917 4 5.833V17.5c0 .917.75 1.667 1.667 1.667h9.166c.917 0 1.667-.75 1.667-1.667V5.833c0-.916-.75-1.666-1.667-1.666zm0 13.333H5.667V5.833h9.166V17.5z"/>
    </g>
</svg>
