<svg xmlns="http://www.w3.org/2000/svg" width="20" height="20" viewBox="0 0 20 20">
  <g fill="none" fill-rule="evenodd">
    <path d="M0 0h20v20H0z"/>
    <path fill="#8FC300" fill-rule="nonzero" d="M10 4C5.108 4 1.346 8.978 1.184 9.223c-.245.325-.245.644 0 .969.162.245 3.924 5.223 8.816 5.223 4.892 0 8.654-4.978 8.816-5.223.245-.325.245-.644 0-.969C18.654 8.978 14.892 4 10 4zm0 1.63a4.036 4.036 0 0 1 4.077 4.078A4.036 4.036 0 0 1 10 13.784a4.036 4.036 0 0 1-4.077-4.076A4.036 4.036 0 0 1 10 5.63zm0 2.04a2.04 2.04 0 0 0-2.038 2.038A2.04 2.04 0 0 0 10 11.746a2.04 2.04 0 0 0 2.038-2.038A2.04 2.04 0 0 0 10 7.669z"/>
  </g>
</svg>