<?xml version="1.0" encoding="UTF-8"?>
<svg width="434px" height="175px" viewBox="0 0 434 175" version="1.1" xmlns="http://www.w3.org/2000/svg" xmlns:xlink="http://www.w3.org/1999/xlink">
<style type="text/css">
	.st0{fill:#FFFFFF;}
	.st1{enable-background:new;}
</style>
<g id="Page-1">
	<g id="white" transform="translate(-62.000000, -36.000000)">
			<g id="Group" transform="translate(117.000000, 123.500000) scale(-1, 1) rotate(-180.000000) translate(-117.000000, -123.500000) translate(62.000000, 36.000000)">
			<path id="Shape" class="st0" d="M41.1,173.1c-18.4-5.4-32.3-18.7-38.2-36.5c-2-6.1-2.2-9.1-2.6-37.3C-0.2,61.7-1.3,64.5,15,64.5
				h11l0.3-24.7L26.6,15l2.7-4.7c2.2-3.6,4.1-5.3,8.5-7.5C43.1,0.3,44.6,0,54.1,0c13,0,19.1,1.6,24,6.5c4.1,4.1,5.8,8.8,6.6,19.2
				l0.7,7.5l-5.2,0.6c-12.7,1.5-23.6,10.2-17,13.7c1.7,1,2.8,0.7,5.9-1.4c4.3-2.8,12.2-5.1,14.5-4.2c1.2,0.4,1.5,2.6,1.5,11.5v10.9
				l11.5,0.4c8.9,0.2,11.8,0.6,12.6,1.8c0.6,0.9,0.8,13.3,0.6,33c-0.3,29.8-0.4,31.8-2.6,37.7c-5.8,16-18.5,29-33.8,34.5
				C66.2,174.4,48.1,175.2,41.1,173.1z M55.1,86.9V7.3L49.9,8c-12.5,1.7-15.8,5.5-15.8,18.2v8.1L37,35c1.6,0.3,5,1.9,7.5,3.5
				c3.4,2.2,4.6,3.6,4.6,5.4c0,3.5-2.5,5.2-5.3,3.7c-1.2-0.7-3.8-2.1-5.7-3.2l-3.5-1.9l-0.5,14.1C33.5,74.1,34,73.5,18.9,73.5H8.1
				v25.8c0,28.1,0.7,33.1,5.8,42.6c6.7,12.6,24.9,24.2,38.5,24.5l2.7,0.1V86.9z M88.9,135.4c5.1-2.5,9.1-8.1,10.2-14.1
				c0.9-5,0.5-6.5-2.2-7.4c-2.6-0.8-4,0.7-5.8,6.4c-1.6,5-6.4,9.2-10.4,9.2c-2.6,0-4.6,1.8-4.6,4C76.1,137.9,81.9,138.7,88.9,135.4z
				"/>
			<path id="Shape_1_" class="st0" d="M24.1,136.4c-7.8-2.3-14.5-11.1-13.8-18s6.7-6.3,8.1,0.9c1.6,8,9.1,12,16.2,8.6
				c3.6-1.7,5.8-4.9,6.9-10.6c0.7-3.1,4-4.5,6.3-2.7c2.3,2,1.1,9.3-2.3,14.2C40.8,135.4,31.7,138.6,24.1,136.4z"/>
		</g>
		<g class="st1">
			<path class="st0" d="M214.2,175c2.8,0.1,4.9-0.9,6.4-2.9c1.5-2,2.2-4.9,2.2-8.7v-59.6h10.3v61.1c0,6-1.4,10.7-4.3,13.9
				c-2.9,3.3-7,4.9-12.3,4.9c-3.3,0-6.6-0.7-10-2l2.4-7.8C210.5,174.5,212.3,174.8,214.2,175z M232.4,82.5c1.2,1.2,1.8,2.8,1.8,4.7
				c0,1.9-0.6,3.5-1.8,4.7c-1.2,1.2-2.7,1.9-4.6,1.9c-1.8,0-3.4-0.6-4.6-1.9c-1.2-1.2-1.8-2.8-1.8-4.7c0-1.9,0.6-3.5,1.8-4.7
				c1.2-1.2,2.7-1.9,4.6-1.9C229.7,80.6,231.2,81.2,232.4,82.5z"/>
			<path class="st0" d="M287.5,162v-8.1c-4.3,5.7-11.1,8.6-20.4,8.6c-4,0-7.6-0.8-10.6-2.3c-3-1.5-5.4-3.7-7-6.4
				c-1.7-2.7-2.5-5.8-2.5-9.1c0-5.2,1.9-9.3,5.8-12.4c3.9-3,9.2-4.6,16.1-4.7h18.5v-2.8c0-4.1-1.3-7.3-3.8-9.5
				c-2.5-2.2-6.2-3.4-11.1-3.4c-5.9,0-11.8,2.1-17.9,6.3l-4.3-7c4.2-2.7,8-4.7,11.6-5.9c3.6-1.2,7.8-1.8,12.7-1.8
				c7.3,0,12.9,1.8,16.8,5.3c4,3.6,6,8.5,6.1,14.9l0.1,38.3H287.5z M281.4,150.5c3.3-2.3,5.3-5.4,6-9.2v-5.8h-17.1
				c-4.6,0-8,0.7-10.3,2.1c-2.2,1.4-3.4,3.6-3.4,6.6c0,3,1.1,5.4,3.4,7.2c2.3,1.8,5.3,2.6,9.1,2.6C274,154,278,152.8,281.4,150.5z"
				/>
			<path class="st0" d="M364.2,109.5c3.9,4,5.8,9.5,5.8,16.6v36h-10.2v-33.2c0-4.9-1.4-8.7-4.1-11.5s-6.5-4.1-11.4-4.1
				c-5.2,0.1-9.4,1.7-12.7,5c-3.3,3.3-5.1,7.5-5.6,12.7V162h-10.2v-58.2h10.2v12.3c3.9-8.3,11.3-12.5,22.1-12.6
				C355,103.5,360.4,105.5,364.2,109.5z"/>
			<path class="st0" d="M439.8,103.8V162h-10.3v-12.3c-3.8,8.3-11,12.5-21.6,12.7c-6.7,0-12-2-15.8-6c-3.8-4-5.7-9.5-5.7-16.6v-36
				h10.3V137c0,4.9,1.3,8.7,4,11.5c2.7,2.8,6.4,4.1,11.1,4.1c5.4-0.1,9.7-2,12.9-5.8c3.2-3.8,4.8-8.6,4.8-14.5v-28.6H439.8z"/>
			<path class="st0" d="M483.5,113.2c-2.9-0.9-5.7-1.3-8.3-1.3c-3.1,0-5.6,0.6-7.4,1.7c-1.9,1.1-2.8,2.9-2.8,5.2
				c0,2.3,1,4.1,3.1,5.3c2.1,1.2,5.3,2.4,9.5,3.7c4,1.2,7.3,2.3,9.9,3.5c2.6,1.2,4.7,2.9,6.5,5.2c1.8,2.3,2.7,5.3,2.7,9
				c0,5.5-2.1,9.7-6.2,12.5c-4.1,2.9-9.3,4.3-15.5,4.3c-4.3,0-8.5-0.7-12.6-2.1c-4.1-1.4-7.5-3.4-10.3-5.9l3.8-7.5
				c2.4,2.2,5.4,4,9,5.3c3.6,1.3,7,2,10.4,2c3.4,0,6.1-0.6,8.1-1.9c2.1-1.2,3.1-3.2,3.1-5.7c0-2.6-1.1-4.6-3.2-5.9
				c-2.2-1.3-5.4-2.6-9.8-4c-3.9-1.1-7.1-2.2-9.5-3.4c-2.5-1.1-4.5-2.8-6.3-5c-1.7-2.2-2.6-5.1-2.6-8.6c0-5.4,2-9.5,5.9-12.2
				c4-2.7,8.9-4.1,14.8-4.1c3.5,0,7,0.5,10.4,1.5c3.4,1,6.4,2.3,8.9,4l-3.7,7.8C489.1,115.2,486.4,114,483.5,113.2z"/>
		</g>
	</g>
</g>
</svg>
