<?xml version="1.0" standalone="no"?>
<!DOCTYPE svg PUBLIC "-//W3C//DTD SVG 20010904//EN"
 "http://www.w3.org/TR/2001/REC-SVG-20010904/DTD/svg10.dtd">
<svg version="1.0" xmlns="http://www.w3.org/2000/svg"
 width="110.000000pt" height="176.000000pt" viewBox="0 0 110.000000 176.000000"
 preserveAspectRatio="xMidYMid meet">
<metadata>
Created by potrace 1.14, written by Peter Selinger 2001-2017
</metadata>
<g transform="translate(0.000000,176.000000) scale(0.100000,-0.100000)"
fill="#000000" stroke="none">
<path d="M410 1736 c-184 -54 -323 -187 -382 -365 -20 -61 -22 -91 -26 -373
-5 -376 -16 -348 147 -348 l110 0 3 -247 3 -248 27 -47 c22 -36 41 -53 85 -75
53 -25 68 -28 163 -28 130 0 191 16 240 65 41 41 58 88 66 192 l7 75 -52 6
c-127 15 -236 102 -170 137 17 10 28 7 59 -14 43 -28 122 -51 145 -42 12 4 15
26 15 115 l0 109 115 4 c89 2 118 6 126 18 6 9 8 133 6 330 -3 298 -4 318 -26
377 -58 160 -185 290 -338 345 -72 27 -253 35 -323 14z m140 -862 l0 -796 -52
7 c-125 17 -158 55 -158 182 l0 81 29 7 c16 3 50 19 75 35 34 22 46 36 46 54
0 35 -25 52 -53 37 -12 -7 -38 -21 -57 -32 l-35 -19 -5 141 c-6 175 -1 169
-152 169 l-108 0 0 258 c0 281 7 331 58 426 67 126 249 242 385 245 l27 1 0
-796z m338 485 c51 -25 91 -81 102 -141 9 -50 5 -65 -22 -74 -26 -8 -40 7 -58
64 -16 50 -64 92 -104 92 -26 0 -46 18 -46 40 0 44 58 52 128 19z"/>
<path d="M240 1369 c-78 -23 -145 -111 -138 -180 7 -69 67 -63 81 9 16 80 91
120 162 86 36 -17 58 -49 69 -106 7 -31 40 -45 63 -27 23 20 11 93 -23 142
-47 66 -138 98 -214 76z"/>
</g>
</svg>
