<?xml version="1.0" encoding="UTF-8" standalone="no"?>
<svg width="444px" height="175px" viewBox="0 0 444 175" version="1.1" xmlns="http://www.w3.org/2000/svg" xmlns:xlink="http://www.w3.org/1999/xlink">
    <!-- Generator: Sketch 42 (36781) - http://www.bohemiancoding.com/sketch -->
    <title>vertical</title>
    <desc>Created with Sketch.</desc>
    <defs></defs>
    <g id="Page-1" stroke="none" stroke-width="1" fill="none" fill-rule="evenodd">
        <g id="Group" transform="translate(388.900000, 87.000000) scale(-1, 1) rotate(-180.000000) translate(-388.900000, -87.000000) translate(333.900000, -0.500000)" fill-rule="nonzero" fill="#FFFFFF">
            <path d="M41.1,173.1 C22.7,167.7 8.8,154.4 2.9,136.6 C0.9,130.5 0.7,127.5 0.3,99.3 C-0.2,61.7 -1.3,64.5 15,64.5 L26,64.5 L26.3,39.8 L26.6,15 L29.3,10.3 C31.5,6.7 33.4,5 37.8,2.8 C43.1,0.3 44.6,0 54.1,0 C67.1,0 73.2,1.6 78.1,6.5 C82.2,10.6 83.9,15.3 84.7,25.7 L85.4,33.2 L80.2,33.8 C67.5,35.3 56.6,44 63.2,47.5 C64.9,48.5 66,48.2 69.1,46.1 C73.4,43.3 81.3,41 83.6,41.9 C84.8,42.3 85.1,44.5 85.1,53.4 L85.1,64.3 L96.6,64.7 C105.5,64.9 108.4,65.3 109.2,66.5 C109.8,67.4 110,79.8 109.8,99.5 C109.5,129.3 109.4,131.3 107.2,137.2 C101.4,153.2 88.7,166.2 73.4,171.7 C66.2,174.4 48.1,175.2 41.1,173.1 Z M55.1,86.9 L55.1,7.3 L49.9,8 C37.4,9.7 34.1,13.5 34.1,26.2 L34.1,34.3 L37,35 C38.6,35.3 42,36.9 44.5,38.5 C47.9,40.7 49.1,42.1 49.1,43.9 C49.1,47.4 46.6,49.1 43.8,47.6 C42.6,46.9 40,45.5 38.1,44.4 L34.6,42.5 L34.1,56.6 C33.5,74.1 34,73.5 18.9,73.5 L8.1,73.5 L8.1,99.3 C8.1,127.4 8.8,132.4 13.9,141.9 C20.6,154.5 38.8,166.1 52.4,166.4 L55.1,166.5 L55.1,86.9 Z M88.9,135.4 C94,132.9 98,127.3 99.1,121.3 C100,116.3 99.6,114.8 96.9,113.9 C94.3,113.1 92.9,114.6 91.1,120.3 C89.5,125.3 84.7,129.5 80.7,129.5 C78.1,129.5 76.1,131.3 76.1,133.5 C76.1,137.9 81.9,138.7 88.9,135.4 Z" id="Shape"></path>
            <path d="M24.1,136.4 C16.3,134.1 9.6,125.3 10.3,118.4 C11,111.5 17,112.1 18.4,119.3 C20,127.3 27.5,131.3 34.6,127.9 C38.2,126.2 40.4,123 41.5,117.3 C42.2,114.2 45.5,112.8 47.8,114.6 C50.1,116.6 48.9,123.9 45.5,128.8 C40.8,135.4 31.7,138.6 24.1,136.4 Z" id="Shape"></path>
        </g>
        <text id="janus" font-family="Montserrat-Regular, Montserrat" font-size="64" font-weight="normal" fill="#FFFFFF">
            <tspan x="305" y="226">janus</tspan>
        </text>
        <text id="janus" font-family="Montserrat-Regular, Montserrat" font-size="110" font-weight="normal" fill="#FFFFFF">
            <tspan x="5" y="117">janus</tspan>
        </text>
    </g>
</svg>